<!-- Generated by IcoMoon.io -->
<svg version="1.1" xmlns="http://www.w3.org/2000/svg" width="30" height="30" viewBox="0 0 768 768">
<title></title>
<g id="icomoon-ignore">
</g>
<path d="M736 384c0-97.184-39.424-185.248-103.104-248.896s-151.712-103.104-248.896-103.104-185.248 39.424-248.896 103.104-103.104 151.712-103.104 248.896 39.424 185.248 103.104 248.896 151.712 103.104 248.896 103.104 185.248-39.424 248.896-103.104 103.104-151.712 103.104-248.896zM672 384c0 79.552-32.192 151.488-84.352 203.648s-124.096 84.352-203.648 84.352-151.488-32.192-203.648-84.352-84.352-124.096-84.352-203.648 32.192-151.488 84.352-203.648 124.096-84.352 203.648-84.352 151.488 32.192 203.648 84.352 84.352 124.096 84.352 203.648zM352 192v192c0 12.448 7.104 23.264 17.696 28.608l128 64c15.808 7.904 35.040 1.504 42.944-14.304s1.504-35.040-14.304-42.944l-110.336-55.136v-172.224c0-17.664-14.336-32-32-32s-32 14.336-32 32z"></path>
</svg>
