<?xml version="1.0" encoding="UTF-8"?>
<!DOCTYPE svg PUBLIC "-//W3C//DTD SVG 1.1//EN" "http://www.w3.org/Graphics/SVG/1.1/DTD/svg11.dtd">
<!-- Creator: CorelDRAW 2020 (64 Bit) -->
<svg xmlns="http://www.w3.org/2000/svg" xml:space="preserve" width="91.44mm" height="91.4398mm" version="1.1" style="shape-rendering:geometricPrecision; text-rendering:geometricPrecision; image-rendering:optimizeQuality; fill-rule:evenodd; clip-rule:evenodd"
viewBox="0 0 9144 9143.98"
 xmlns:xlink="http://www.w3.org/1999/xlink"
 xmlns:xodm="http://www.corel.com/coreldraw/odm/2003">
 <defs>
  <style type="text/css">
   <![CDATA[
    .str0 {stroke:#FEFEFE;stroke-width:7.62;stroke-miterlimit:22.9256}
    .fil1 {fill:#FEFEFE}
    .fil0 {fill:black}
   ]]>
  </style>
 </defs>
 <rect class="fil0" y="-0" width="9144" height="9143.99"/>
 <g id="Camada_x0020_1">
  <metadata id="CorelCorpID_0Corel-Layer"/>
  <g id="_2252176304224">
   <path class="fil1 str0" d="M2282.09 7685.48l222.71 327.84 -449.98 15.16c47.99,-111.8 -3.38,-45.13 104.75,-195.63 49.4,-68.77 74.36,-92.5 122.52,-147.37zm-927.39 -279.63l-198.17 30.46 39.91 -358.84c289.38,-102.6 229.53,6.64 448.05,-109.52 4.29,-2.28 243.72,-188.95 266.77,-212.32 135.89,161.33 239.57,396.9 147.99,573.21 122.99,245.69 135.02,250.3 62.48,541.99 -370.56,155.6 -262.44,33.77 -509.46,-112.04 -159.18,-93.96 -266.51,8.86 -257.57,-352.94zm2823.42 -726.75l-37.36 571.92c-160.09,-234.84 -136.84,-315.8 -97.89,-624.16l135.25 52.24zm-3156.86 287.46c155.66,-242.15 -18.48,-75.63 191.65,-133.78l97.58 120.71 -280.57 200.25 -8.66 -187.18zm0 0c-183.6,-139.52 -129.99,-75.41 -186.19,-331.36 217.69,57.38 174.72,100.94 186.19,331.36zm844.85 -3508.07l141.25 69.49 -109.69 377.07 -51.29 205.9 -7.83 121.9 -14.73 125.08 -67.79 442.21c76.34,182.57 60.5,348.72 69.78,555.98 2.42,54.09 13.17,330.2 9.58,357.25 -36.11,271.94 162.5,86.86 -110.79,253.26l0 -14.83 144.47 113.49 -85.23 131.28 -70.49 374.64 -41.75 38.2 230.96 -134.36 8.7 280.58c-306.66,144.6 -357.45,131.76 -698.35,77.15 -171.52,-227.48 -246.56,-255.86 -193.92,-577.76l-76.74 3.02c26.25,284.04 33.46,142.98 -58.05,301.17 -124.62,-180.38 -164.27,-125.99 -45.95,-336.62 -73.59,-192.71 -107.23,-239.49 91.28,-388.18l70.19 -123.09 -4.2 -4.81 -127.6 -63.71c-904.9,755.48 191,2153.23 721.52,2430.67 475.75,248.79 1135.73,212.01 1637.81,56.76 726.41,-224.64 704.79,-390.52 1087.93,-885.99l457.67 -1.63 193.17 -111.32 -112.42 -253.12c-322.94,265.9 -502.58,43.3 -675.48,-199.07 -117.45,-187.48 -44.67,-124.3 -238.89,-157.75l-66.99 18.8 95.39 72.38c-10.09,470.77 264.65,918.82 -242.78,1049.68 45.56,-179.75 294.87,-605.41 106.45,-752.44 -32.69,784.65 -255.24,969.61 -1046.77,908.42l298.13 143.74 -383.7 86.36 -216.52 -338.09c-159.44,-135.49 -35.99,43.2 -162.48,-194.69 -11.21,-21.09 -52.94,-140.62 -57.83,-162.58 -40.7,-182.16 -0.55,-165.48 37.46,-391.83l-71.5 211.15 -108.4 -397.34c-132.97,-96.78 -127.15,91.83 -105.39,-100.73 121.9,-88.54 59.38,-85.6 185.43,-28.72 -259.52,-131.54 -127.5,-98.63 -136.66,-248.11l267.94 83.56 -20.78 -54.77c-440.6,-139.78 -501.08,-619.69 -321.11,-990.02 -178.99,-9.48 18.6,164.43 -186.92,-53.81 -0.72,-302.29 -65.74,-282.29 120.79,-509.7 -50.2,-422.37 -63.8,-584.57 335.96,-764.22l-271.92 59.34 92.91 -363.18 -60.51 -25.75 115.68 -184.44 69.21 -129.13 269.14 40.91 -222.97 -162.81 -35.32 -2521.36c-621.04,-33.78 -412.55,608.37 -376.07,1113.18 33.31,460.76 174.66,1307.6 27.01,1523.34z"/>
   <path class="fil1 str0" d="M8175.96 6948.04c-56.32,-282.97 -79.29,-117.92 70.49,-334.12 70.31,153.26 69.04,161.21 -70.49,334.12zm117.65 -406.24c-145.75,-190.46 -78.66,-146.56 7.35,-315.38 84.6,199.31 139.39,61.55 -7.35,315.38zm-74.81 -702.12c169.78,171.24 178.8,163.43 101.89,342.31 -159.6,-207.67 -91.13,-54.99 -101.89,-342.31zm-660.01 -1598.72l-11.84 76.63c200.16,-228.66 0.32,-171.8 267.86,-300.78 102.09,191.84 73.93,96.49 55.98,350.46l-310.93 12.6 -12.89 290.48 196.64 24.68c-268.5,-149.72 -272.5,-224.94 99.78,-257.01l39.21 360.51 -456.2 35.49 -40.56 -300.81 -43.5 -278.94 76.96 -252.88 139.49 239.57zm-524.08 -698.61l43.02 162.86 -14.8 121.9 94.17 335.47c-218.64,-53.6 -393.79,-166.59 -600.29,-13.1 566.55,-143.08 882.41,355.05 614.22,758.07 198.53,279.89 76.75,117.01 63.96,800.89 -5.33,284.98 -27.51,485.15 -232.99,670.72l139.9 97.18 -168.54 204.47c86.33,188.48 34.22,132 28.44,378.66 -43.07,285.65 -120.03,230.4 -181.62,398.51 -75.45,205.94 77.43,216.37 -184.93,302.7l-214.61 282.61 -322.49 3.22c-150.86,-99.29 -206.62,-119.24 -381.56,-171.39 -289.09,-86.18 -282.95,33.31 -315.36,-185.03l-254.95 -285.93c-229.97,-231.44 -128.22,-271.56 -225.43,-52.11 369.57,815.34 2662.09,1732.67 3545.01,-370.07 406.92,-969.07 74.21,-1121.53 -190.02,-1376.6l-117.87 29.87 -84.81 138.29 -443.32 -51.79c272.07,209.7 277.9,119.5 569.97,11.99l18.99 105.94 -97.21 310.13c63.33,507.49 31.63,270.23 -173.69,669.73 188.15,97.44 133.8,-13.69 186.07,293.46l-173.97 -55.2c86.91,230.42 76.37,180.03 -28.89,389.5 -269.36,-93.97 -97.34,-174.44 -449.62,-161.7 234,76.61 406.55,48.99 276.68,415.12l-310.43 31.64 -106.53 -355.35c-43.53,439.95 0.35,157 148.36,483.57 -263.13,102.4 -522.05,187.28 -832.64,181.89l213.51 -419.21 156.88 260.55c-65.7,-312.68 37.61,-903.42 237.34,-1154.27l12.97 -261.72 108.43 55.38 -4.25 -370.27c-43.21,-188.41 -111.13,14.83 45.44,-211.28 -81.57,-125.04 -33.96,-7.69 -63.87,-145.43 -0.91,-4.29 -9.87,-141.63 -10.85,-166.48 -9,-227.7 -30.1,-96.95 19.78,-347.83l40.28 -358.38c270.59,-7.06 289.05,68.08 470.01,-125l191.59 -230.09c-166.17,-223.37 -98.75,-253 -123.57,-539.19 -612.59,-259.67 -134.72,-71.26 -477.54,-435.88 63.73,235.87 89.45,164.24 -5.05,383.74 -370.31,-76.21 -128.63,-136.87 -375.04,-452.78l-58.28 18.02z"/>
   <path class="fil1 str0" d="M4853.6 6878.17l112.42 253.12 -193.17 111.32c117.41,80.75 43.39,-26.41 148,109.44 97.21,-219.45 -4.54,-179.33 225.43,52.11l21.5 -351.57c98.06,143.32 207.3,470.43 233.45,637.5 32.41,218.34 26.27,98.85 315.36,185.03 174.94,52.15 230.7,72.1 381.56,171.39 236.9,-284.14 184.97,-19.88 405.52,-304.18 -552.78,62.21 -1304.78,232.65 -1069.77,-1024.89 -163.83,138.83 -103.18,-10.89 -167.29,264.78l-81 -318.48c233.98,-263.81 393.92,-276.53 758.94,-228.26 -73.63,-202.46 169.67,-20.84 -122.04,-209.45 -153.34,134.41 -50.36,86.36 -320.39,88.93 112.86,-128.2 218.01,-216.14 246.62,-442.07 -23.78,287.44 -7.43,204.45 103.2,383.6 40.25,-346.36 114.45,-509.04 139.13,-802.44l-189.27 234.36 1.32 -414.63c-407.67,153.06 233.28,-44.29 -453.6,763.99 -261.78,308.03 -17.77,184.96 -211.94,424.5 -147.84,182.35 -194.68,10.34 -283.98,415.9z"/>
   <path class="fil1 str0" d="M6770.6 3419.14l46.82 13.99 217.29 109.22 58.28 -18.02 162.66 -57.75 217.43 126.79 -314.86 -253.58c76.96,-499.46 114.92,-920.78 146.34,-1413.77 27.7,-434.77 242.31,-1253.17 -360.11,-1073.78 -53.8,431.87 102.5,2401.42 -173.85,2566.9z"/>
   <path class="fil1 str0" d="M7372.31 5281.91c-49.88,250.88 -28.78,120.13 -19.78,347.83 0.98,24.85 9.94,162.19 10.85,166.48 29.91,137.74 -17.7,20.39 63.87,145.43l202.59 -219.9 40.68 -150.35c250.89,96.1 224.94,92.15 450.45,-78.3l37 142.15 117.87 -29.87c-15.72,-355.92 252.16,-333.84 -103.12,-601.81l87.26 -341.47 -185.79 -93.66c73.73,222.18 91.87,692.8 -52.11,945.41l-397.99 -31.01c-41.75,-381.17 17.49,-332.03 275.42,-449.93 -372.93,-32.28 -299.14,-1.43 -527.2,249z"/>
   <path class="fil1 str0" d="M1376.17 4867.41c300.29,276.35 356.24,-215.9 326.29,308.22l-212.12 -124.18 -2.99 448.05 -399.36 -6.4c138.81,236.56 219.72,143.3 467.23,94.79l-139.19 201.73c246.8,62.84 61.31,-5.92 308.57,177.01 273.29,-166.4 74.68,18.68 110.79,-253.26 3.59,-27.05 -7.16,-303.16 -9.58,-357.25 -9.28,-207.26 6.56,-373.41 -69.78,-555.98l-379.86 67.27z"/>
   <path class="fil1 str0" d="M2988 6315.15c274.21,-128.27 167.15,-516.13 150.74,-756.73 11.25,-207.49 -14.95,-178.99 -181.12,-296.1 -140.98,-91.56 -148.01,-112.66 -337.64,-132.36 -225.1,-23.37 -286.58,-53.33 -347.39,79.99l394.83 45.45c-291.3,61.17 -233.61,-19.95 -424.64,178.88 994.49,-80.71 830.14,395.28 745.22,880.87z"/>
   <path class="fil1 str0" d="M3117.48 4857.71c-113.28,184.72 -1.48,131.75 -312.34,126.85l84.61 -210.42 227.73 83.57zm-494.68 -545.59l337.84 224.98 -194.63 267.43c-28.78,-297.26 38.57,-234.7 -133.31,-376.69 55.9,359.6 -26.99,298.55 -155.35,580.58 141.64,3.04 233.27,11.23 367.57,49.05 382.15,107.67 46.84,57.87 346.96,161.48 -2.53,-25.65 -15.56,-199.97 -18.26,-211.9 -34.7,-153.55 -7.81,-62.12 -56.14,-149.34 -192.61,-387.26 54.84,-342.61 -322.48,-556.64l103.72 -226.61 -147.96 -59.26 -24.48 150.76c-274.92,-117.53 -181.12,-53.7 -246.08,-29.91 250.41,122.08 82.31,9.76 142.6,176.07z"/>
   <path class="fil1 str0" d="M1061.54 4579.77l86.23 50.24 81.62 -44.28 132.91 -172.18 248.66 9.72c-216.59,-129.13 -95.41,-50.77 -322.95,-118.96 2.21,-299.34 -26.99,-131.2 74.98,-253.22 214.57,111.61 82.04,83.51 241.24,304.81l219.59 2.03 14.73 -125.08 -245.03 -12.02c175.23,-234.88 63.11,-195.47 252.86,-109.88l51.29 -205.9 -237.46 41.79c2.2,-279.73 54.23,-297.1 205.9,-488.35 -290.52,42.88 -311.05,247.95 -349.48,494.63l-321.56 31.42c-50.74,347.06 17.54,294.83 -133.53,595.23z"/>
   <path class="fil1 str0" d="M2199.73 6645.46c-126.05,-56.88 -63.53,-59.82 -185.43,28.72 -21.76,192.56 -27.58,3.95 105.39,100.73l193.04 -6.86 -13.14 193.05c-38.01,226.35 -78.16,209.67 -37.46,391.83 4.89,21.96 46.62,141.49 57.83,162.58 126.49,237.89 3.04,59.2 162.48,194.69l302.09 107.99c-267.13,-282.09 -554.23,-461.27 -346.42,-969.75 283.64,45.29 81.04,-43.34 238.21,136.52 201.99,-334.85 207.55,-122.73 384.04,-373.9 -294.1,98.55 -549.44,161.15 -860.63,34.4z"/>
   <path class="fil1 str0" d="M6475.37 6891.66l257.75 29.77c117.49,381.22 -141.2,533.7 -229.45,820.9l131.58 18.35c262.36,-86.33 109.48,-96.76 184.93,-302.7 61.59,-168.11 138.55,-112.86 181.62,-398.51l-158.96 -67.79c6.46,-345.35 -91.66,-67.76 130.52,-310.87 -238.71,33.63 -444.37,33.57 -657.17,55.55 116.87,261.32 -28.95,102.26 159.18,155.3z"/>
   <path class="fil1 str0" d="M3709.15 6156.17c136.12,53.54 85.53,-103.65 78.06,183.23l-78.06 -183.23zm-254.85 -111.01l226.01 240.66 -174.9 83.49 -174.54 7.37 -74.96 -179.63 -195.55 414.01 467.67 -6.4 -284.74 -113.04c273.51,-180.76 378.22,-107.43 628.95,48.53l66.99 -18.8 -15.84 -319.13c-218.38,-278.36 -118.58,-58.69 -276.88,-404.37l-26.73 297.89 -165.48 -50.58z"/>
   <path class="fil1 str0" d="M6207.19 5513.03c448.23,-172.51 529.61,-208.54 842.84,139.41 -74.88,-380.88 -267.35,-286.29 -575.38,-408.84 220.51,-19.56 386.79,21.78 583.83,57.17 -206.38,-243.14 -593.66,-206.66 -867.45,-37.94 -37.44,193.39 82.29,4.93 16.16,250.2z"/>
   <path class="fil1 str0" d="M6301.21 5675.51l-38.3 372.79c235.89,242.55 539.11,349.8 725.04,89.15 -290.5,76.14 -370.65,111.27 -635.41,-87.1l12.89 -374.38c297.94,-67.33 204.08,-81.04 423.61,26.93l-86.58 283.24c-218.23,-88.47 -54.89,29.75 -187.28,-180.96l-29.99 221.32c725.97,43.17 345.92,-796.67 -183.98,-350.99z"/>
   <path class="fil1 str0" d="M867.92 5642.8l127.6 63.71c10.44,-234.54 -47.09,-118.82 92.47,-213.41 -46.96,-145.65 -56.93,-782.03 -26.45,-913.33l-156.36 45.37 77.79 359.73 -201.83 295.95 86.78 361.98z"/>
   <path class="fil1 str0" d="M6340.71 4853.67c-67.33,204.1 91.34,92.35 -140.06,147.84 -149.32,-69.86 -67.51,121.82 -124.62,-148.25 178.59,-127.09 17.25,-102.8 264.68,0.41zm-537.59 420.11c432.78,-13.37 55.96,-189.18 660.64,-226.55l12.41 -120.42c-78.32,-163.6 33.9,-34.15 -135.46,-73.14l-150.61 -412.73c-98.23,176.19 -209.38,453.31 -212.72,711.04l-174.26 121.8z"/>
   <path class="fil1 str0" d="M838.25 6222.59l104 35.45 76.74 -3.02 177.27 -194.85c377.76,-39.73 295.57,-54.06 587.58,136.4l85.23 -131.28 -144.47 -113.49c-312.2,20.33 -373.27,-76.75 -631.1,125.64l-163.97 -243.03 -91.28 388.18z"/>
   <path class="fil1 str0" d="M3254.91 5867.4l1 329.65 74.96 179.63 174.54 -7.37 -145.59 -151.83 94.48 -172.32 165.48 50.58 26.73 -297.89c43.56,-128.02 59.22,-97.2 -74.53,-66.32 -177.36,122.2 -120.88,102.72 -317.07,135.87z"/>
   <path class="fil1 str0" d="M1989.12 5436.12c203.06,-127.6 172.16,-66.01 283.47,-226.17l-374.6 152.94 23.23 -355.36c162.26,59.06 469.67,181.4 556.13,0.89 -387.31,5.47 -257.45,13.68 -554.36,-135.81 -186.53,227.41 -121.51,207.41 -120.79,509.7 205.52,218.24 7.93,44.33 186.92,53.81z"/>
   <path class="fil1 str0" d="M7960 7057.8l-112.93 -120.87 100.83 -117.39 -588.31 -5.18c105.02,146.78 56.06,63.13 123.05,225.06l-247.02 205.54c432.67,-101.21 132.69,-247.22 724.38,-187.16z"/>
   <path class="fil1 str0" d="M5711.72 7395.81c124.76,259.2 383.5,371.25 661.86,167.23 179.29,-131.4 280.23,-349.12 207.51,-550.75 -50.83,-140.98 24.74,-60.69 -105.72,-120.63l75.04 279.08c-311.98,585.98 -419.55,387.08 -838.69,225.07z"/>
   <path class="fil1 str0" d="M2957.62 5262.32c166.17,117.11 192.37,88.61 181.12,296.1l116.17 308.98c196.19,-33.15 139.71,-13.67 317.07,-135.87 -226.39,-235.31 -3.25,-131.2 -158.74,-468.5l-221.36 -44.08 169.95 164.01c38.67,93.72 4.95,148.95 -23.05,269.12l-381.16 -389.76z"/>
   <path class="fil1 str0" d="M2135.11 3594.36l-115.68 184.44 60.51 25.75c448.77,-14.21 385.55,172.12 670.82,210.65 -203.1,-284.71 -60.67,-406.21 -277.3,-509.06l16.18 236.87c-301.53,-34.94 -215.32,17.11 -354.53,-148.65z"/>
   <path class="fil1 str0" d="M5711.72 7395.81c22.26,-245.76 -53.32,-413.37 135.37,-432.86 52.35,-54.14 70.17,-201.77 322.06,-45.73 177.48,109.95 122.87,220.01 100.02,388.63 248.71,-236.13 -33.76,-509.97 -272.47,-512.5 -290.6,-3.08 -580.39,446.11 -284.98,602.46z"/>
   <path class="fil1 str0" d="M6535.25 3962.94c191.83,-71.21 273.37,-170.31 527.68,-135.83l14.8 -121.9 -413.71 62.9c-2.06,-160.93 70.43,-217.67 153.4,-334.98l-46.82 -13.99 -217.25 185.47 -18.1 358.33z"/>
   <path class="fil1 str0" d="M5912.34 7327.79c222.05,-123.05 231,-61.98 213.21,-346.6l-278.46 -18.24c-47.49,186.62 -139.44,320.64 65.25,364.84z"/>
   <path class="fil1 str0" d="M2619.64 6260.23c359.44,-88.46 49.82,29.88 158.27,-133.93 -588.39,218.54 -698.55,-26.67 -637.16,-566.05 -346.84,368.38 70.17,800.55 478.89,699.98z"/>
   <path class="fil1 str0" d="M2260.34 5775.73c85.91,280.62 79.32,252.94 375.16,255.11 -223.43,-90.43 -260.47,-54.26 -270.59,-366.32 315.13,-67.51 260.34,-43.66 476.87,131.7 -86.07,-195.25 167.29,36.88 -127.32,-193.01 -232.26,-181.22 -376.13,-28.25 -454.12,172.52z"/>
   <path class="fil1 str0" d="M1229.39 4585.73l380.26 86.84c139.47,22.62 80.51,34.58 68.3,-97.75 -21.58,-234.24 56.84,-18.7 -66.99,-151.55l-248.66 -9.72 -132.91 172.18z"/>
   <path class="fil1 str0" d="M3115.31 7108.28c0.71,-29.65 81.5,-77.89 104.03,12.44 36.93,147.93 -107.01,111.58 -104.03,-12.44zm125.75 199.72c75.62,-69.76 177.21,90.08 62.26,-317.15 -229.68,-21.31 -154.15,-69.82 -306.99,128.69 121.11,226.99 27.7,86.67 244.73,188.46z"/>
   <path class="fil1 str0" d="M7381.81 6152.93c349.95,-171.28 391.27,-126.27 739.78,-3.12 -95.29,-166.77 -79.83,-185.85 -380.31,-189.03 -256.26,-2.72 -323.17,-9.2 -359.47,192.15z"/>
   <path class="fil1 str0" d="M2829.38 7051.66c200.66,-180.45 71.76,-127.23 356.83,-182.75l277.63 201.85c-90.25,-416.06 -541.3,-415.94 -634.46,-19.1z"/>
   <path class="fil1 str0" d="M6467.32 4362.42c-53.22,246.12 -103.28,229.31 -1.83,446.2 72.88,-515.06 161.71,-361.7 534.08,-480.4 -317.92,-51.85 -243,-41.75 -532.25,34.2z"/>
   <path class="fil1 str0" d="M6476.17 4926.81c95.94,58.32 194.47,131.65 302.92,151.59 405.99,74.58 275.55,-32.89 319.49,-102.71 -307.15,73.83 -420.85,-51.53 -633.09,-167.07l10.68 118.19z"/>
   <path class="fil1 str0" d="M2310.23 6426.14l20.78 54.77c261.49,89.95 441.3,65.46 626.31,-130.3l-647.09 75.53z"/>
   <path class="fil1 str0" d="M5944.55 6435.48c-190.24,190.68 18.76,19.12 -223.15,117.93l-226.79 145.79c258.86,-85.97 468.32,-83.49 729.53,-19.2l-279.59 -244.52z"/>
   <path class="fil1 str0" d="M7002 6379.16c-400.12,52.15 -275.84,52.83 -671.98,-4.51 109.1,142.27 -15.1,85.97 190.6,144.5 4.19,1.19 162.42,3.32 171.6,2.56 255.27,-20.94 206.84,-0.38 309.78,-142.55z"/>
   <path class="fil1 str0" d="M2632.7 4427.84l-9.9 -115.72c-356.57,-15.04 -598.68,-84.44 -530.14,343.16l99.02 -267.01 441.02 39.57z"/>
   <path class="fil1 str0" d="M6467.32 4362.42l89.49 -212.94 -167.15 -42.64 145.59 -143.9 -227.8 78.89c-7.64,297.38 -30.29,310.55 159.87,320.59z"/>
   <path class="fil1 str0" d="M2620.94 7306.27c57.47,105.84 -65.31,247.41 322.63,330.7 225.18,48.33 252.94,14.13 391.71,-111.29 -431.62,55.03 -453.99,103.06 -714.34,-219.41z"/>
   <path class="fil1 str0" d="M7881.41 6556.27l-495.35 -33.07c46.72,105.57 -6.68,137.96 223.78,162.76 192.13,20.69 223.57,-72.06 271.57,-129.69z"/>
   <path class="fil1 str0" d="M1376.17 4867.41c-3.96,-10.54 -67.43,-241.38 -69.06,-245.61 252.54,166.16 32.39,154.43 302.54,50.77l-380.26 -86.84 -81.62 44.28c98.17,239.4 57.03,162.87 228.4,237.4z"/>
   <path class="fil1 str0" d="M7881.41 6556.27c248.8,-54.33 202.88,-413.63 -133.29,-403.89l167.65 170.21 -34.36 233.68z"/>
   <path class="fil1 str0" d="M1354.7 7405.85l325.7 -81.44 131.52 359.42c44.63,-373.87 -214.35,-612.14 -457.22,-277.98z"/>
   <path class="fil1 str0" d="M1490.34 5051.45c-317.77,-140.38 -528.7,282.13 -154.49,342.4 -143.62,-238.85 -121.17,-48.19 -64.01,-275.31l218.5 -67.09z"/>
   <path class="fil1 str0" d="M6330.02 6374.65c-304.43,-301.51 -228.71,-214.62 -267.86,-658.24 -240.03,155.44 50.12,581.18 267.86,658.24z"/>
   <path class="fil1 str0" d="M1671.6 6609.41l41.75 -38.2c-275.88,8.37 -282.04,-2.76 -504.03,-107.82 107.35,230.82 201.8,264.68 462.28,146.02z"/>
   <path class="fil1 str0" d="M6269.17 7305.85l-356.83 21.94c11.01,13.04 -58.51,143.34 199.16,102.34 214.13,-34.08 107.02,-64.82 157.67,-124.28z"/>
   <path class="fil1 str0" d="M3241.06 7308c-276.43,7.45 -168.82,34.3 -399.72,-74.98 110.26,228.08 235.71,290.6 399.72,74.98z"/>
   <path class="fil1 str0" d="M1416.03 5789.62l-416.31 -78.3c151.63,173.87 235.21,190.18 416.31,78.3z"/>
   <polygon class="fil1 str0" points="7385.84,4533.21 7381.73,4377.29 7559.86,4379.87 7546.95,4317.59 7558.79,4240.96 7342.34,4254.27 "/>
   <path class="fil1 str0" d="M3831.3 6909.77c-56.14,-238.83 -78.77,-230.35 -303.27,-305.11l303.27 305.11z"/>
   <path class="fil1 str0" d="M7042.52 4576.91c-240.96,116.19 -29.59,107.61 -252.72,24.26 126.15,280.35 185.67,143.38 252.72,-24.26z"/>
   <path class="fil1 str0" d="M7826.5 5397.61c227.04,-62.8 164.94,-53.75 171.58,-259.58l-171.58 259.58z"/>
   <polygon class="fil1 str0" points="6062.16,5716.41 6207.19,5513.03 6094.67,5519.23 "/>
   <path class="fil1 str0" d="M2059.25 7328.84c-135.55,-146.94 -66.67,-106.81 -289.5,-137.3l289.5 137.3z"/>
  </g>
 </g>
</svg>
