<?xml version="1.0" encoding="UTF-8"?>
<!DOCTYPE svg PUBLIC "-//W3C//DTD SVG 1.1//EN" "http://www.w3.org/Graphics/SVG/1.1/DTD/svg11.dtd">
<!-- Creator: CorelDRAW 2020 (64 Bit) -->
<svg xmlns="http://www.w3.org/2000/svg" xml:space="preserve" width="91.44mm" height="91.4398mm" version="1.1" style="shape-rendering:geometricPrecision; text-rendering:geometricPrecision; image-rendering:optimizeQuality; fill-rule:evenodd; clip-rule:evenodd"
viewBox="0 0 9144 9143.98"
 xmlns:xlink="http://www.w3.org/1999/xlink"
 xmlns:xodm="http://www.corel.com/coreldraw/odm/2003">
 <defs>
  <style type="text/css">
   <![CDATA[
    .str1 {stroke:#373435;stroke-width:20;stroke-miterlimit:22.9256}
    .str0 {stroke:#FEFEFE;stroke-width:7.62;stroke-miterlimit:22.9256}
    .fil3 {fill:none}
    .fil2 {fill:#FEFEFE}
    .fil0 {fill:black}
    .fil1 {fill:#FEFEFE;fill-rule:nonzero}
   ]]>
  </style>
 </defs>
 <rect class="fil0" y="-0" width="9144" height="9143.99"/>
 <g id="Camada_x0020_1">
  <metadata id="CorelCorpID_0Corel-Layer"/>
  <g id="_2252022879536">
   <path class="fil1" d="M2402.1 7070.74c25.78,-7.79 44.74,-13.65 56.87,-17.51 219.86,-68.09 377.42,-102.14 472.19,-102.14 71.55,0 107.04,26.74 107.04,80.23 0,20.95 -8.27,39.42 -24.33,55.96 -16.06,15.99 -34.05,24.26 -53.97,24.26 -9.71,0 -23.36,-1.44 -41.35,-4.34 -15.09,-2.89 -27.71,-4.41 -36.94,-4.41 -55.97,0 -129.37,12.68 -220.77,38.46 -33.08,10.2 -97.32,36.94 -192.09,79.26 -63.75,28.67 -115.79,42.8 -156.59,42.8 -29.71,0 -53.49,-13.64 -72.51,-41.35 -17.99,-25.78 -27.22,-52.52 -27.22,-81.19 0,-35.02 19.5,-94.36 58.37,-178.03 119.17,-258.19 246.54,-489.71 382.74,-694.89 194.98,-294.24 346.2,-510.11 453.65,-647.75 29.71,-37.43 58.87,-74.85 88.57,-112.83 46.18,-62.72 86.02,-93.81 120.07,-93.81 17.02,0 32.12,6.76 45.21,19.92 12.2,13.1 18.54,27.23 18.54,41.36 0,20.88 -16.06,53 -48.66,96.77 -6.34,8.75 -46.18,60.24 -118.13,155.56 -135.23,177.55 -235.86,313.19 -302.03,407.55 -66.17,93.87 -136.67,202.77 -212.01,326.28 -147.36,242.2 -246.06,445.46 -296.65,609.84zm1113.12 -735.28c16.06,0 29.16,6.27 39.91,18.47 7.31,10.68 11.17,20.89 11.17,31.57 0,17.02 -13.65,45.28 -41.36,85.6 -98.21,152.74 -168.72,278.66 -210.08,377.36 -44.73,101.66 -84.08,206.22 -118.13,313.67 -15.1,47.7 -38.94,71.48 -70.99,71.48 -18.96,0 -34.05,-7.79 -45.77,-22.82 -10.2,-12.2 -15.51,-25.77 -15.51,-39.9 0,-28.68 30.12,-123.52 90.91,-284.94 47.7,-127.44 124,-268.45 230.48,-422.15 34.05,-50.53 59.83,-84.09 76.85,-101.12 17.03,-17.98 34.54,-27.22 52.52,-27.22zm269.91 -528.1c42.8,0 64.17,21.85 64.17,65.62 0,39.91 -20.89,84.16 -62.72,132.75 -39.84,46.66 -78.3,70.02 -115.24,70.02 -17.99,0 -32.6,-6.82 -44.25,-19.91 -11.17,-12.69 -17.03,-27.71 -17.03,-45.7 0,-45.77 25.3,-94.36 75.41,-145.91 36.94,-37.91 70.51,-56.87 99.66,-56.87zm7.31 894.77c12.13,-11.23 24.33,-22.88 35.49,-34.04 197.95,-194.51 330.22,-291.83 397.28,-291.83 36.94,0 55.48,20.47 55.48,61.28 0,28.74 -16.54,62.3 -49.62,101.18 -180.93,212.01 -271.36,398.24 -271.36,559.73 0,52.52 14.13,102.14 42.81,149.77 13.09,21.85 19.92,38.87 19.92,51.55 0,11.17 -5.86,21.85 -17.03,32.6 -12.61,13.1 -27.22,19.92 -44.25,19.92 -38.39,0 -70.99,-24.81 -97.73,-73.95 -25.3,-46.66 -37.91,-103.04 -37.91,-169.69 0,-128.41 47.63,-270.39 142.95,-426.02 -128.41,82.71 -247.99,229.1 -358.89,438.63 -28.67,50.59 -59.34,75.89 -91.39,75.89 -16.54,0 -29.71,-5.86 -40.39,-17.03 -13.17,-13.58 -19.92,-30.6 -19.92,-51.55 0,-51.08 58.31,-185.75 175.55,-403.14 62.72,-117.65 112.34,-203.26 148.32,-256.26 36.46,-52.04 67.07,-78.3 92.84,-78.3 12.69,0 24.33,5.86 35.98,17.03 13.17,13.65 19.99,28.67 19.99,45.7 0,20.95 -13.65,51.07 -41.35,90.01 -39.91,58.31 -71.96,110.83 -96.77,158.52zm909.38 367.16c101.66,-73.95 177.48,-141.57 226.62,-202.36 73.4,-88.5 124.96,-159.97 155.15,-214.9 15.5,-24.82 31.08,-37.43 47.14,-37.43 22.88,0 34.53,11.17 34.53,33.02 0,25.29 -18.47,68.09 -54.45,127.92 -111.86,182.37 -279.62,341.38 -503.35,476.54 -104.56,218.35 -181.41,366.67 -230.96,444.49 -130.82,205.25 -254.33,307.81 -370.06,307.81 -60.79,0 -104.07,-23.78 -130.81,-70.99 -15.1,-27.71 -22.89,-59.34 -22.89,-94.36 0,-148.8 95.81,-291.75 287.42,-428.91 30.12,-22.81 153.15,-93.8 368.6,-213.46 41.84,-88.98 74.85,-158.52 97.74,-209.11 -100.15,104.07 -182.86,156.11 -248.47,156.11 -40.88,0 -72.99,-20.88 -95.81,-62.72 -14.13,-27.22 -21.43,-55.97 -21.43,-85.12 0,-68.1 28.25,-156.11 84.15,-263.08 79.75,-154.67 175.55,-276.66 287.9,-366.68 93.87,-74.85 176.99,-112.34 249.43,-112.34 36.95,0 69.06,13.64 95.32,41.35 17.99,17.99 27.23,44.73 27.23,79.75 0,43.76 -14.54,97.73 -44.25,162.45 21.92,20.88 32.6,36.94 32.6,47.14 0,6.83 -4.41,16.06 -14.13,28.67 -25.78,35.02 -67.06,101.19 -124.47,197.95 -50.11,84.64 -94.36,170.73 -132.75,258.26zm-4.41 -329.25c-13.58,-14.13 -19.92,-24.33 -19.92,-29.63 0,-8.76 6.82,-19.51 20.95,-33.09 46.18,-45.21 83.61,-92.91 111.8,-142.46 22.88,-38.95 34.53,-69.07 34.53,-90.98 0,-25.78 -11.65,-38.39 -35.5,-38.39 -40.8,0 -99.18,38.87 -175.07,116.68 -89.94,91.95 -160.45,194.99 -210.56,309.27 -24.81,56.93 -36.94,100.69 -36.94,130.81 0,17.03 4.34,30.19 12.61,38.46 8.27,8.76 19.51,13.1 33.57,13.1 33.56,0 80.71,-34.53 141.02,-102.63 37.97,-43.77 70.5,-86.5 97.25,-128.34 18.54,-27.7 27.29,-41.83 26.26,-42.8zm-275.7 621.97c-124.96,53.49 -235.37,133.71 -331.18,242.2 -44.25,50.04 -75.81,103.04 -94.84,159.01 -5.79,17.02 -8.75,31.56 -8.75,42.8 0,12.13 2.96,23.3 8.75,32.53 10.27,17.03 24.82,25.78 43.77,25.78 58.86,0 127.44,-63.2 206.22,-189.13 68.1,-108.97 126.89,-213.52 176.03,-313.19zm858.31 -445.94l0 25.3c0,20.88 5.38,38.87 15.58,53.97 23.84,34.53 62.72,52.03 116.69,52.03 119.16,0 256.32,-91.39 411.88,-273.76 27.78,-31.15 51.08,-46.73 70.03,-46.73 10.27,0 19.99,4.89 28.26,15.58 5.79,7.78 8.75,14.61 8.75,21.43 0,36.94 -45.76,99.66 -136.67,188.16 -71.48,69.06 -147.36,126 -228.07,169.76 -80.71,43.77 -155.63,65.62 -225.18,65.62 -71.47,0 -127.37,-24.81 -168.72,-73.89 -27.71,-34.05 -41.36,-80.78 -41.36,-139.57 0,-160.52 75.41,-317.6 226.63,-471.23 122.06,-124.96 229.03,-187.75 320.01,-187.75 24.81,0 47.14,7.79 67.06,22.88 24.81,19.92 37.01,46.18 37.01,78.3 0,50.11 -23.36,111.86 -69.54,185.27 -95.8,151.7 -239.79,256.74 -432.36,314.63zm32.12 -110.89c66.17,-22.82 118.69,-48.6 156.59,-77.27 66.1,-51.07 118.62,-109.45 157.56,-174.1 14.06,-22.88 21.37,-43.28 21.37,-61.27 0,-18.96 -9.24,-28.74 -27.22,-28.74 -24.33,0 -59.35,18.54 -105.04,55.96 -81.2,65.62 -149.29,160.46 -203.26,285.42zm916.13 -83.13c92.91,-99.66 200.37,-196.98 321.95,-292.23 43.76,-34.05 90.43,-66.17 139.57,-95.81 24.81,-14.61 40.32,-21.92 47.14,-21.92 14.13,0 28.19,10.21 42.8,31.16 8.28,11.16 12.69,21.85 12.69,31.08 0,17.03 -17.99,40.39 -54.04,69.55 -96.29,76.85 -144.4,134.74 -144.4,173.62 0,21.84 12.14,32.6 36.95,32.6 40.39,0 110.41,-33.57 209.11,-101.18 17.03,-11.17 31.16,-17.03 42.32,-17.03 7.79,0 15.1,3.93 22.82,11.72 8.27,8.2 12.68,17.51 12.68,26.74 0,28.67 -39.91,72.44 -119.17,131.78 -83.12,62.73 -162.39,94.29 -237.31,94.29 -30.12,0 -57.82,-8.27 -83.6,-24.26 -21.92,-13.16 -32.6,-37.01 -32.6,-70.99 0,-23.85 10.2,-51.07 30.12,-81.26 -75.34,53 -163.83,144.46 -265.98,273.76 -58.86,79.82 -117.17,178.03 -175.55,295.21 -21.85,43.76 -49.14,65.68 -81.19,65.68 -35.5,0 -53,-16.54 -53,-49.63 0,-32.6 27.7,-119.17 82.64,-259.7 82.15,-208.56 167.76,-370.54 257.22,-485.29 55,-71.48 101.18,-106.97 138.12,-106.97 12.69,0 23.85,3.86 34.53,11.16 12.2,9.72 18.48,21.37 18.48,35.98 0,14.13 -9.72,34.05 -28.68,59.83 -3.37,4.34 -28.67,36.46 -75.4,95.32 -42.73,55.9 -75.33,111.86 -98.22,166.79zm1005.19 -386.59c16.06,0 29.16,6.27 39.91,18.47 7.3,10.68 11.16,20.89 11.16,31.57 0,17.02 -13.64,45.28 -41.35,85.6 -98.22,152.74 -168.73,278.66 -210.08,377.36 -44.73,101.66 -84.09,206.22 -118.14,313.67 -15.09,47.7 -38.94,71.48 -70.99,71.48 -18.95,0 -34.05,-7.79 -45.76,-22.82 -10.2,-12.2 -15.51,-25.77 -15.51,-39.9 0,-28.68 30.12,-123.52 90.91,-284.94 47.69,-127.44 123.99,-268.45 230.48,-422.15 34.05,-50.53 59.83,-84.09 76.85,-101.12 17.02,-17.98 34.53,-27.22 52.52,-27.22zm269.91 -528.1c42.8,0 64.16,21.85 64.16,65.62 0,39.91 -20.88,84.16 -62.72,132.75 -39.83,46.66 -78.29,70.02 -115.24,70.02 -17.99,0 -32.6,-6.82 -44.25,-19.91 -11.16,-12.69 -17.02,-27.71 -17.02,-45.7 0,-45.77 25.29,-94.36 75.4,-145.91 36.95,-37.91 70.51,-56.87 99.67,-56.87zm-146.4 1108.71l0 25.3c0,20.88 5.38,38.87 15.58,53.97 23.85,34.53 62.72,52.03 116.69,52.03 119.17,0 256.33,-91.39 411.89,-273.76 27.77,-31.15 51.07,-46.73 70.02,-46.73 10.27,0 19.99,4.89 28.26,15.58 5.79,7.78 8.76,14.61 8.76,21.43 0,36.94 -45.77,99.66 -136.68,188.16 -71.48,69.06 -147.36,126 -228.07,169.76 -80.71,43.77 -155.63,65.62 -225.17,65.62 -71.48,0 -127.38,-24.81 -168.73,-73.89 -27.71,-34.05 -41.35,-80.78 -41.35,-139.57 0,-160.52 75.4,-317.6 226.62,-471.23 122.06,-124.96 229.03,-187.75 320.01,-187.75 24.81,0 47.14,7.79 67.06,22.88 24.82,19.92 37.02,46.18 37.02,78.3 0,50.11 -23.37,111.86 -69.55,185.27 -95.8,151.7 -239.78,256.74 -432.36,314.63zm32.12 -110.89c66.17,-22.82 118.69,-48.6 156.6,-77.27 66.09,-51.07 118.61,-109.45 157.56,-174.1 14.06,-22.88 21.36,-43.28 21.36,-61.27 0,-18.96 -9.23,-28.74 -27.22,-28.74 -24.33,0 -59.35,18.54 -105.04,55.96 -81.2,65.62 -149.29,160.46 -203.26,285.42z"/>
   <g>
    <path class="fil2 str0" d="M4500.79 5295.97l145.19 213.73 -293.35 9.89c31.29,-72.89 -2.2,-29.43 68.29,-127.54 32.21,-44.84 48.48,-60.31 79.87,-96.08zm-604.58 -182.29l-129.19 19.86 26.02 -233.94c188.65,-66.88 149.63,4.33 292.09,-71.39 2.8,-1.49 158.88,-123.18 173.91,-138.42 88.59,105.17 156.18,258.75 96.48,373.69 80.18,160.16 88.02,163.17 40.73,353.33 -241.58,101.44 -171.09,22.01 -332.12,-73.04 -103.77,-61.26 -173.75,5.78 -167.92,-230.09zm1840.64 -473.78l-24.35 372.84c-104.37,-153.09 -89.21,-205.87 -63.82,-406.9l88.17 34.06zm-2058.02 187.4c101.48,-157.86 -12.04,-49.31 124.95,-87.22l63.61 78.7 -182.91 130.55 -5.65 -122.03zm0 0c-119.69,-90.96 -84.74,-49.17 -121.37,-216.02 141.91,37.4 113.9,65.8 121.37,216.02zm550.78 -2286.98l92.09 45.3 -71.52 245.82 -33.44 134.23 -5.1 79.47 -9.6 81.54 -44.19 288.29c49.76,119.02 39.43,227.34 45.48,362.45 1.59,35.26 8.59,215.27 6.25,232.9 -23.54,177.28 105.94,56.63 -72.23,165.1l0 -9.66 94.19 73.99 -55.57 85.58 -45.95 244.23 -27.22 24.91 150.57 -87.6 5.67 182.92c-199.91,94.26 -233.03,85.9 -455.26,50.29 -111.82,-148.3 -160.74,-166.8 -126.42,-376.65l-50.04 1.97c17.12,185.17 21.82,93.21 -37.84,196.34 -81.24,-117.6 -107.09,-82.14 -29.95,-219.45 -47.98,-125.63 -69.91,-156.13 59.5,-253.06l45.76 -80.25 -2.73 -3.13 -83.19 -41.54c-589.92,492.52 124.52,1403.74 470.37,1584.61 310.16,162.19 740.41,138.2 1067.72,37 473.56,-146.45 459.47,-254.59 709.25,-577.59l298.36 -1.07 125.93 -72.57 -73.29 -165.02c-210.53,173.35 -327.64,28.23 -440.36,-129.77 -76.56,-122.22 -29.12,-81.04 -155.73,-102.84l-43.68 12.26 62.19 47.18c-6.58,306.9 172.53,598.99 -158.28,684.3 29.71,-117.18 192.24,-394.67 69.41,-490.53 -21.31,511.53 -166.4,632.11 -682.42,592.22l194.36 93.71 -250.14 56.3 -141.15 -220.41c-103.94,-88.33 -23.46,28.17 -105.93,-126.92 -7.3,-13.75 -34.51,-91.68 -37.7,-105.99 -26.53,-118.75 -0.36,-107.88 24.43,-255.44l-46.62 137.65 -70.67 -259.03c-86.69,-63.1 -82.89,59.86 -68.7,-65.67 79.47,-57.72 38.71,-55.8 120.88,-18.72 -169.18,-85.76 -83.12,-64.3 -89.09,-161.75l174.68 54.48 -13.55 -35.71c-287.24,-91.13 -326.66,-403.99 -209.34,-645.41 -116.69,-6.18 12.13,107.19 -121.86,-35.09 -0.46,-197.06 -42.85,-184.03 78.75,-332.28 -32.73,-275.35 -41.59,-381.09 219.02,-498.21l-177.27 38.68 60.57 -236.76 -39.45 -16.79 75.41 -120.23 45.13 -84.19 175.45 26.68 -145.36 -106.15 -23.02 -1643.72c-404.87,-22.02 -268.95,396.61 -245.17,725.7 21.72,300.39 113.87,852.46 17.61,993.1z"/>
    <path class="fil2 str0" d="M8343.12 4815.23c-36.71,-184.48 -51.69,-76.88 45.95,-217.82 45.84,99.91 45.01,105.09 -45.95,217.82zm76.7 -264.84c-95.02,-124.16 -51.28,-95.55 4.79,-205.6 55.15,129.93 90.87,40.12 -4.79,205.6zm-48.77 -457.73c110.68,111.64 116.56,106.55 66.43,223.16 -104.05,-135.38 -59.42,-35.85 -66.43,-223.16zm-430.27 -1042.23l-7.72 49.95c130.48,-149.06 0.2,-112 174.62,-196.08 66.55,125.06 48.2,62.9 36.5,228.47l-202.7 8.21 -8.41 189.37 128.19 16.09c-175.04,-97.6 -177.64,-146.64 65.05,-167.55l25.56 235.03 -297.4 23.13 -26.44 -196.1 -28.36 -181.84 50.17 -164.86 90.94 156.18zm-341.66 -455.44l28.05 106.17 -9.66 79.47 61.4 218.7c-142.54,-34.94 -256.72,-108.61 -391.34,-8.54 369.34,-93.28 575.26,231.46 400.42,494.2 129.43,182.46 50.04,76.28 41.69,522.12 -3.47,185.78 -17.93,316.28 -151.89,437.25l91.21 63.36 -109.88 133.29c56.28,122.87 22.31,86.05 18.54,246.86 -28.07,186.22 -78.25,150.2 -118.4,259.79 -49.19,134.26 50.48,141.06 -120.56,197.34l-139.9 184.24 -210.24 2.1c-98.35,-64.73 -134.7,-77.74 -248.75,-111.73 -188.46,-56.19 -184.46,21.71 -205.59,-120.63l-166.2 -186.4c-149.92,-150.88 -83.59,-177.04 -146.97,-33.97 240.93,531.53 1735.47,1129.56 2311.07,-241.26 265.27,-631.75 48.37,-731.15 -123.88,-897.43l-76.84 19.47 -55.3 90.16 -289.01 -33.76c177.38,136.7 181.17,77.9 371.58,7.81l12.38 69.06 -63.37 202.19c41.28,330.84 20.62,176.16 -113.23,436.61 122.66,63.52 87.22,-8.93 121.3,191.31l-113.41 -35.99c56.65,150.22 49.78,117.36 -18.84,253.92 -175.6,-61.26 -63.46,-113.72 -293.12,-105.41 152.55,49.94 265.04,31.93 180.38,270.62l-202.38 20.63 -69.45 -231.66c-28.37,286.81 0.23,102.35 96.72,315.25 -171.54,66.75 -340.33,122.09 -542.81,118.58l139.19 -273.3 102.27 169.86c-42.83,-203.84 24.52,-588.95 154.73,-752.49l8.46 -170.62 70.68 36.1 -2.77 -241.38c-28.17,-122.83 -72.45,9.66 29.63,-137.74 -53.19,-81.52 -22.14,-5.02 -41.64,-94.81 -0.6,-2.8 -6.44,-92.33 -7.08,-108.53 -5.86,-148.44 -19.62,-63.21 12.89,-226.76l26.27 -233.63c176.4,-4.6 188.43,44.38 306.4,-81.49l124.91 -150c-108.34,-145.62 -64.38,-164.94 -80.56,-351.51 -399.36,-169.29 -87.82,-46.46 -311.32,-284.16 41.55,153.77 58.31,107.07 -3.29,250.17 -241.41,-49.69 -83.86,-89.23 -244.49,-295.18l-38 11.75z"/>
    <path class="fil2 str0" d="M6177.21 4769.67l73.29 165.02 -125.93 72.57c76.54,52.64 28.28,-17.21 96.48,71.35 63.38,-143.07 -2.95,-116.91 146.97,33.97l14.01 -229.2c63.93,93.44 135.14,306.68 152.19,415.6 21.13,142.34 17.13,64.44 205.59,120.63 114.05,33.99 150.4,47 248.75,111.73 154.44,-185.24 120.58,-12.96 264.36,-198.3 -360.36,40.55 -850.61,151.67 -697.4,-668.15 -106.8,90.51 -67.26,-7.1 -109.06,172.62l-52.8 -207.62c152.53,-171.99 256.8,-180.28 494.76,-148.81 -48,-131.99 110.62,-13.59 -79.56,-136.55 -99.96,87.63 -32.83,56.3 -208.86,57.97 73.57,-83.57 142.12,-140.9 160.77,-288.19 -15.5,187.39 -4.84,133.29 67.28,250.08 26.24,-225.8 74.61,-331.85 90.7,-523.13l-123.39 152.79 0.86 -270.31c-265.77,99.79 152.08,-28.87 -295.71,498.06 -170.66,200.81 -11.58,120.58 -138.17,276.74 -96.37,118.88 -126.91,6.74 -185.13,271.13z"/>
    <path class="fil2 str0" d="M7426.94 2514.67l30.52 9.12 141.66 71.2 38 -11.75 106.04 -37.65 141.74 82.66 -205.26 -165.31c50.17,-325.61 74.92,-600.28 95.4,-921.66 18.06,-283.44 157.96,-816.97 -234.77,-700.02 -35.07,281.54 66.83,1565.53 -113.33,1673.41z"/>
    <path class="fil2 str0" d="M7819.2 3729.04c-32.51,163.55 -18.75,78.32 -12.89,226.76 0.64,16.2 6.48,105.73 7.08,108.53 19.5,89.79 -11.55,13.29 41.64,94.81l132.06 -143.35 26.52 -98.03c163.57,62.66 146.65,60.08 293.66,-51.04l24.13 92.67 76.84 -19.47c-10.25,-232.03 164.39,-217.64 -67.23,-392.33l56.89 -222.61 -121.12 -61.06c48.06,144.84 59.89,451.65 -33.97,616.33l-259.46 -20.21c-27.22,-248.5 11.4,-216.46 179.55,-293.33 -243.12,-21.04 -195.02,-0.93 -343.7,162.33z"/>
    <path class="fil2 str0" d="M3910.21 3458.82c195.77,180.16 232.23,-140.75 212.71,200.94l-138.29 -80.96 -1.94 292.09 -260.35 -4.17c90.49,154.22 143.23,93.42 304.59,61.8l-90.74 131.51c160.9,40.96 39.97,-3.86 201.16,115.39 178.17,-108.47 48.69,12.18 72.23,-165.1 2.34,-17.63 -4.66,-197.64 -6.25,-232.9 -6.05,-135.11 4.28,-243.43 -45.48,-362.45l-247.64 43.85z"/>
    <path class="fil2 str0" d="M4960.99 4402.63c178.76,-83.62 108.97,-336.47 98.27,-493.33 7.33,-135.26 -9.74,-116.68 -118.08,-193.03 -91.9,-59.69 -96.49,-73.45 -220.11,-86.28 -146.74,-15.24 -186.83,-34.78 -226.47,52.14l257.4 29.63c-189.9,39.88 -152.29,-13.01 -276.83,116.61 648.32,-52.61 541.18,257.7 485.82,574.26z"/>
    <path class="fil2 str0" d="M5045.4 3452.5c-73.85,120.42 -0.96,85.89 -203.62,82.69l55.16 -137.17 148.46 54.48zm-322.49 -355.68l220.24 146.67 -126.88 174.34c-18.76,-193.79 25.15,-153.01 -86.91,-245.57 36.45,234.43 -17.59,194.63 -101.27,378.49 92.33,1.98 152.07,7.32 239.62,31.97 249.14,70.2 30.54,37.73 226.19,105.28 -1.64,-16.72 -10.14,-130.37 -11.9,-138.14 -22.62,-100.11 -5.09,-40.5 -36.6,-97.36 -125.57,-252.47 35.76,-223.35 -210.23,-362.88l67.61 -147.73 -96.45 -38.64 -15.96 98.28c-179.22,-76.62 -118.07,-35 -160.43,-19.5 163.26,79.59 53.67,6.37 92.97,114.79z"/>
    <path class="fil2 str0" d="M3705.1 3271.3l56.21 32.75 53.21 -28.86 86.64 -112.25 162.11 6.34c-141.2,-84.19 -62.19,-33.1 -210.53,-77.55 1.43,-195.15 -17.6,-85.53 48.88,-165.08 139.88,72.76 53.48,54.44 157.26,198.71l143.16 1.32 9.6 -81.54 -159.74 -7.84c114.24,-153.12 41.15,-127.43 164.84,-71.63l33.44 -134.23 -154.8 27.25c1.44,-182.36 35.35,-193.69 134.23,-318.37 -189.4,27.96 -202.78,161.64 -227.84,322.46l-209.63 20.48c-33.07,226.26 11.44,192.21 -87.04,388.04z"/>
    <path class="fil2 str0" d="M4447.1 4617.97c-82.17,-37.08 -41.41,-39 -120.88,18.72 -14.19,125.53 -17.99,2.57 68.7,65.67l125.85 -4.47 -8.56 125.85c-24.79,147.56 -50.96,136.69 -24.43,255.44 3.19,14.31 30.4,92.24 37.7,105.99 82.47,155.09 1.99,38.59 105.93,126.92l196.93 70.4c-174.14,-183.9 -361.31,-300.71 -225.84,-632.2 184.92,29.53 52.84,-28.25 155.3,89.01 131.68,-218.3 135.31,-80.02 250.36,-243.76 -191.72,64.25 -358.19,105.06 -561.06,22.43z"/>
    <path class="fil2 str0" d="M7234.47 4778.47l168.04 19.41c76.59,248.52 -92.05,347.93 -149.59,535.16l85.78 11.96c171.04,-56.28 71.37,-63.08 120.56,-197.34 40.15,-109.59 90.33,-73.57 118.4,-259.79l-103.63 -44.19c4.21,-225.14 -59.75,-44.18 85.09,-202.67 -155.62,21.92 -289.69,21.89 -428.42,36.21 76.19,170.37 -18.87,66.67 103.77,101.25z"/>
    <path class="fil2 str0" d="M5431.12 4298.99c88.74,34.9 55.76,-67.57 50.89,119.45l-50.89 -119.45zm-166.14 -72.37l147.34 156.89 -114.02 54.43 -113.79 4.8 -48.86 -117.1 -127.49 269.9 304.88 -4.17 -185.62 -73.69c178.3,-117.84 246.57,-70.04 410.02,31.64l43.68 -12.26 -10.33 -208.05c-142.36,-181.47 -77.3,-38.26 -180.51,-263.62l-17.42 194.2 -107.88 -32.97z"/>
    <path class="fil2 str0" d="M7059.64 3879.71c292.21,-112.46 345.26,-135.95 549.47,90.89 -48.82,-248.31 -174.29,-186.64 -375.1,-266.53 143.75,-12.75 252.15,14.19 380.6,37.27 -134.54,-158.51 -387.01,-134.73 -565.5,-24.73 -24.41,126.07 53.65,3.21 10.53,163.1z"/>
    <path class="fil2 str0" d="M7120.93 3985.64l-24.96 243.03c153.78,158.12 351.45,228.04 472.66,58.12 -189.38,49.63 -241.63,72.53 -414.23,-56.79l8.41 -244.06c194.22,-43.9 133.03,-52.84 276.15,17.55l-56.44 184.65c-142.27,-57.67 -35.79,19.4 -122.1,-117.97l-19.55 144.29c473.28,28.14 225.52,-519.37 -119.94,-228.82z"/>
    <path class="fil2 str0" d="M3578.87 3964.31l83.19 41.54c6.8,-152.9 -30.71,-77.46 60.28,-139.13 -30.61,-94.95 -37.12,-509.82 -17.24,-595.42l-101.94 29.58 50.71 234.52 -131.58 192.93 56.58 235.98z"/>
    <path class="fil2 str0" d="M7146.69 3449.87c-43.89,133.05 59.54,60.2 -91.31,96.37 -97.35,-45.54 -44.01,79.42 -81.24,-96.65 116.43,-82.84 11.24,-67.01 172.55,0.28zm-350.47 273.87c282.14,-8.71 36.48,-123.33 430.69,-147.69l8.08 -78.51c-51.05,-106.65 22.11,-22.25 -88.3,-47.67l-98.19 -269.07c-64.04,114.86 -136.5,295.52 -138.67,463.54l-113.61 79.4z"/>
    <path class="fil2 str0" d="M3559.53 4342.29l67.79 23.11 50.04 -1.97 115.56 -127.03c246.27,-25.89 192.69,-35.24 383.05,88.93l55.57 -85.58 -94.19 -73.99c-203.53,13.25 -243.34,-50.04 -411.42,81.9l-106.9 -158.43 -59.5 253.06z"/>
    <path class="fil2 str0" d="M5135 4110.74l0.65 214.9 48.86 117.1 113.79 -4.8 -94.91 -98.98 61.59 -112.34 107.88 32.97 17.42 -194.2c28.4,-83.46 38.61,-63.36 -48.58,-43.23 -115.63,79.66 -78.81,66.97 -206.7,88.58z"/>
    <path class="fil2 str0" d="M4309.8 3829.58c132.38,-83.19 112.24,-43.04 184.8,-147.45l-244.21 99.71 15.14 -231.67c105.78,38.5 306.19,118.25 362.56,0.58 -252.5,3.56 -167.84,8.91 -361.4,-88.54 -121.6,148.25 -79.21,135.22 -78.75,332.28 133.99,142.28 5.17,28.91 121.86,35.09z"/>
    <path class="fil2 str0" d="M8202.34 4886.78l-73.63 -78.8 65.74 -76.52 -383.54 -3.39c68.47,95.69 36.55,41.16 80.22,146.72l-161.03 134c282.06,-65.98 86.5,-161.16 472.24,-122.01z"/>
    <path class="fil2 str0" d="M6736.64 5107.14c81.33,168.97 250.01,242.02 431.48,109.02 116.88,-85.66 182.68,-227.6 135.28,-359.05 -33.14,-91.91 16.13,-39.57 -68.93,-78.64l48.92 181.93c-203.38,382.02 -273.51,252.35 -546.75,146.74z"/>
    <path class="fil2 str0" d="M4941.18 3716.27c108.34,76.35 125.41,57.77 118.08,193.03l75.74 201.44c127.89,-21.61 91.07,-8.92 206.7,-88.58 -147.59,-153.41 -2.12,-85.53 -103.49,-305.42l-144.31 -28.74 110.8 106.92c25.21,61.1 3.22,97.1 -15.03,175.44l-248.49 -254.09z"/>
    <path class="fil2 str0" d="M4404.97 2628.9l-75.41 120.23 39.45 16.79c292.56,-9.26 251.35,112.21 437.32,137.33 -132.4,-185.61 -39.55,-264.82 -180.78,-331.86l10.55 154.41c-196.57,-22.77 -140.37,11.16 -231.13,-96.9z"/>
    <path class="fil2 str0" d="M6736.64 5107.14c14.51,-160.22 -34.76,-269.49 88.25,-282.2 34.12,-35.29 45.74,-131.53 209.95,-29.81 115.71,71.68 80.11,143.43 65.21,253.36 162.14,-153.94 -22.01,-332.46 -177.63,-334.11 -189.45,-2.01 -378.37,290.82 -185.78,392.76z"/>
    <path class="fil2 str0" d="M7273.51 2869.18c125.06,-46.42 178.21,-111.03 344,-88.55l9.66 -79.47 -269.71 41c-1.35,-104.91 45.91,-141.9 100,-218.37l-30.52 -9.12 -141.63 120.91 -11.8 233.6z"/>
    <path class="fil2 str0" d="M6867.42 5062.79c144.77,-80.22 150.6,-40.41 139,-225.95l-181.53 -11.9c-30.96,121.67 -90.91,209.04 42.53,237.85z"/>
    <path class="fil2 str0" d="M4720.85 4366.83c234.33,-57.67 32.48,19.48 103.18,-87.31 -383.59,142.47 -455.4,-17.39 -415.38,-369.02 -226.11,240.15 45.75,521.89 312.2,456.33z"/>
    <path class="fil2 str0" d="M4486.62 4050.97c56,182.95 51.7,164.9 244.57,166.31 -145.66,-58.95 -169.81,-35.37 -176.4,-238.81 205.43,-44.01 169.72,-28.46 310.88,85.86 -56.11,-127.29 109.06,24.04 -83.01,-125.82 -151.41,-118.14 -245.2,-18.43 -296.04,112.46z"/>
    <path class="fil2 str0" d="M3814.52 3275.19l247.9 56.61c90.92,14.75 52.48,22.55 44.53,-63.72 -14.07,-152.71 37.05,-12.19 -43.68,-98.8l-162.11 -6.34 -86.64 112.25z"/>
    <path class="fil2 str0" d="M5043.99 4919.68c0.46,-19.32 53.13,-50.77 67.82,8.11 24.07,96.45 -69.77,72.75 -67.82,-8.11zm81.98 130.21c49.29,-45.48 115.52,58.72 40.59,-206.76 -149.74,-13.89 -100.5,-45.51 -200.14,83.9 78.95,147.98 18.06,56.5 159.55,122.86z"/>
    <path class="fil2 str0" d="M7825.4 4296.88c228.14,-111.66 255.08,-82.32 482.28,-2.03 -62.13,-108.73 -52.05,-121.16 -247.93,-123.24 -167.06,-1.77 -210.68,-6 -234.35,125.27z"/>
    <path class="fil2 str0" d="M4857.58 4882.77c130.81,-117.63 46.79,-82.94 232.63,-119.13l180.99 131.59c-58.83,-271.24 -352.88,-271.16 -413.62,-12.46z"/>
    <path class="fil2 str0" d="M7229.23 3129.61c-34.7,160.45 -67.33,149.49 -1.19,290.89 47.5,-335.78 105.41,-235.8 348.17,-313.19 -207.26,-33.8 -158.42,-27.22 -346.98,22.3z"/>
    <path class="fil2 str0" d="M7234.99 3497.54c62.55,38.03 126.78,85.83 197.48,98.83 264.68,48.62 179.64,-21.44 208.29,-66.96 -200.24,48.13 -274.36,-33.59 -412.72,-108.91l6.95 77.04z"/>
    <path class="fil2 str0" d="M4519.14 4474.99l13.55 35.71c170.46,58.63 287.69,42.67 408.3,-84.95l-421.85 49.24z"/>
    <path class="fil2 str0" d="M6888.42 4481.08c-124.02,124.31 12.23,12.46 -145.47,76.88l-147.85 95.04c168.76,-56.05 305.31,-54.43 475.59,-12.52l-182.27 -159.4z"/>
    <path class="fil2 str0" d="M7577.79 4444.36c-260.84,34 -179.82,34.44 -438.07,-2.94 71.12,92.75 -9.85,56.05 124.25,94.2 2.74,0.78 105.89,2.17 111.87,1.67 166.42,-13.65 134.84,-0.24 201.95,-92.93z"/>
    <path class="fil2 str0" d="M4729.36 3172.26l-6.45 -75.44c-232.46,-9.81 -390.29,-55.05 -345.61,223.71l64.56 -174.07 287.5 25.8z"/>
    <path class="fil2 str0" d="M7229.23 3129.61l58.34 -138.82 -108.97 -27.8 94.91 -93.81 -148.51 51.43c-4.97,193.87 -19.74,202.46 104.23,209z"/>
    <path class="fil2 str0" d="M4721.69 5048.76c37.47,69 -42.57,161.29 210.34,215.59 146.79,31.51 164.89,9.21 255.36,-72.55 -281.38,35.87 -295.97,67.19 -465.7,-143.04z"/>
    <path class="fil2 str0" d="M8151.1 4559.82l-322.93 -21.56c30.46,68.82 -4.35,89.94 145.89,106.11 125.25,13.49 145.75,-46.98 177.04,-84.55z"/>
    <path class="fil2 str0" d="M3910.21 3458.82c-2.58,-6.87 -43.96,-157.36 -45.02,-160.12 164.63,108.32 21.11,100.68 197.23,33.1l-247.9 -56.61 -53.21 28.86c64,156.08 37.18,106.19 148.9,154.77z"/>
    <path class="fil2 str0" d="M8151.1 4559.82c162.2,-35.42 132.26,-269.65 -86.9,-263.3l109.3 110.96 -22.4 152.34z"/>
    <path class="fil2 str0" d="M3896.21 5113.68l212.33 -53.09 85.74 234.31c29.1,-243.73 -139.74,-399.07 -298.07,-181.22z"/>
    <path class="fil2 str0" d="M3984.63 3578.8c-207.15,-91.52 -344.66,183.93 -100.71,223.22 -93.63,-155.71 -78.99,-31.42 -41.73,-179.48l142.44 -43.74z"/>
    <path class="fil2 str0" d="M7139.72 4441.42c-198.47,-196.56 -149.1,-139.92 -174.63,-429.12 -156.47,101.34 32.68,378.88 174.63,429.12z"/>
    <path class="fil2 str0" d="M4102.8 4594.47l27.22 -24.91c-179.85,5.46 -183.86,-1.8 -328.59,-70.29 69.99,150.48 131.56,172.55 301.37,95.2z"/>
    <path class="fil2 str0" d="M7100.05 5048.49l-232.63 14.3c7.18,8.5 -38.14,93.45 129.84,66.72 139.6,-22.22 69.77,-42.26 102.79,-81.02z"/>
    <path class="fil2 str0" d="M5125.97 5049.89c-180.21,4.86 -110.06,22.36 -260.59,-48.88 71.88,148.69 153.67,189.44 260.59,48.88z"/>
    <path class="fil2 str0" d="M3936.19 4060.03l-271.4 -51.05c98.85,113.35 153.34,123.99 271.4,51.05z"/>
    <polygon class="fil2 str0" points="7828.03,3240.95 7825.35,3139.3 7941.48,3140.98 7933.06,3100.38 7940.78,3050.43 7799.67,3059.11 "/>
    <path class="fil2 str0" d="M5510.76 4790.27c-36.6,-155.69 -51.36,-150.16 -197.72,-198.9l197.72 198.9z"/>
    <path class="fil2 str0" d="M7604.21 3269.44c-157.08,75.75 -19.29,70.15 -164.75,15.82 82.24,182.76 121.04,93.47 164.75,-15.82z"/>
    <path class="fil2 str0" d="M8115.3 3804.47c148.02,-40.94 107.53,-35.04 111.86,-169.22l-111.86 169.22z"/>
    <polygon class="fil2 str0" points="6965.09,4012.3 7059.64,3879.71 6986.29,3883.76 "/>
    <path class="fil2 str0" d="M4355.52 5063.48c-88.37,-95.8 -43.46,-69.64 -188.73,-89.51l188.73 89.51z"/>
   </g>
   <path class="fil1" d="M1419.67 3571.94c54.81,-29.3 165,-95.21 330.66,-198.93 48.25,-29.95 180.63,-106.31 395.92,-226.95 88.01,-48.25 200.23,-103.72 337.14,-166.3 82.92,-38.55 139.58,-57.4 170.27,-57.4 17.57,0 35.22,7.11 51.49,20.89 18.95,19.5 28.75,43.63 28.75,73.03 0,35.22 -15.71,63.87 -47.61,86.06 -15.71,11.09 -54.81,27.45 -118.69,47.61 -408.96,159.18 -748.77,354.14 -1018.79,583.11 -37.16,138.3 -65.91,272.61 -86.07,403.7 -42.43,280.46 -63.32,517.2 -63.32,709.67 0,69.05 8.51,121.28 26.07,155.85 17.01,35.22 42.43,52.79 77,52.79 67.86,0 202.17,-142.83 403.05,-427.82 38.55,-54.17 69.14,-80.89 91.98,-80.89 29.39,0 43.72,17.66 43.72,53.53 0,51.48 -55.46,157.15 -166.3,318.27 -158.54,234.8 -303.95,352.2 -435.03,352.2 -108.99,0 -182.02,-58.7 -217.24,-176.1 -22.83,-73.12 -34.57,-165.01 -34.57,-275.94 0,-221.76 28.1,-458.5 84.12,-710.22 56.11,-252.46 90.04,-408.96 101.13,-470.25 -71.08,131.08 -204.11,354.79 -399.16,671.12 -233.5,403.05 -373.09,723.26 -418.76,962.04 -18.21,77.56 -53.43,116.75 -106.95,116.75 -35.87,0 -63.23,-16.36 -82.83,-49.64 -9.8,-19.51 -14.97,-43.63 -14.97,-73.03 0,-99.1 51.49,-263.46 154.56,-493.08 58.7,-129.14 138.94,-288.23 240.72,-478.01 38.45,-70.44 123.22,-209.38 255.6,-416.82 290.26,-460.45 472.92,-795.73 547.89,-1006.41 28.01,-74.97 48.91,-121.28 61.29,-139.49 22.84,-29.4 50.94,-43.72 84.12,-43.72 17.66,0 33.93,5.82 47.61,17.56 18.95,16.36 28.75,38.55 28.75,65.26 0,111.49 -117.4,378.92 -351.55,801.56zm1260.71 1330.51c-41.69,74.41 -83.48,136.35 -123.87,187.84 -80.24,99.18 -159.83,148.73 -238.78,148.73 -69.05,0 -122.57,-32.63 -160.38,-97.8 -24.13,-41.78 -36.52,-91.33 -36.52,-148.74 0,-141.52 44.28,-297.38 133.67,-468.3 99.84,-190.43 219.83,-335.84 360.06,-438.27 91.24,-65.91 179.98,-99.19 265.4,-99.19 53.52,0 98.54,16.37 134.41,49.64 30.6,29.31 45.66,62.59 45.66,99.75 0,28.1 -11.09,67.2 -32.63,116.75 19.51,26.72 28.66,50.2 28.66,71.09 0,26.71 -17.56,70.44 -53.43,131.73 -36.52,62.67 -73.77,145.5 -110.28,249.22 -39.75,109.54 -59.35,197.55 -59.35,264.1 0,53.53 15.71,97.16 47.61,131.73 9.15,9.15 35.22,23.48 78.29,44.37 31.99,14.98 48.26,41.79 48.26,80.24 0,24.13 -9.15,43.73 -26.72,59.35 -19.59,16.27 -41.78,24.77 -67.2,24.77 -69.15,0 -128.5,-31.33 -178.69,-93.27 -41.14,-49.55 -61.94,-112.13 -61.94,-187.19 0,-25.42 2.59,-67.85 7.77,-126.55zm239.42 -629.99c-15.07,-28.1 -31.98,-48.9 -49.64,-62.03 -18.21,-13.68 -37.16,-20.15 -57.31,-20.15 -97.25,0 -202.91,84.77 -316.34,254.95 -125.25,187.84 -187.84,346.38 -187.84,476.81 0,31.99 5.83,56.11 18.21,73.03 11.74,16.36 30.05,24.78 54.82,24.78 61.29,0 132.38,-65.18 214.56,-195.61 45.66,-71.09 102.42,-176.75 170.27,-315.69 44.93,-90.68 77.56,-150.68 97.81,-180.72 10.44,-14.97 28.65,-33.19 55.46,-55.37z"/>
  </g>
  <rect class="fil3 str1" x="-10.04" y="11.42" width="9126.43" height="9110.34"/>
 </g>
</svg>
